<svg width="7" height="13" viewBox="0 0 7 13" fill="none" xmlns="http://www.w3.org/2000/svg">
<path d="M5.625 3H6.5V9.69922C6.5 10.5924 6.1901 11.3581 5.57031 11.9961C4.95052 12.6159 4.19401 12.9258 3.30078 12.9258C2.40755 12.9258 1.64193 12.6159 1.00391 11.9961C0.384115 11.3581 0.0742188 10.5924 0.0742188 9.69922V2.42578C0.0742188 1.78776 0.302083 1.24089 0.757812 0.785156C1.23177 0.311198 1.78776 0.0742188 2.42578 0.0742188C3.0638 0.0742188 3.61068 0.311198 4.06641 0.785156C4.52214 1.24089 4.75 1.78776 4.75 2.42578V8.55078C4.75 8.95182 4.60417 9.29818 4.3125 9.58984C4.03906 9.86328 3.70182 10 3.30078 10C2.89974 10 2.55339 9.86328 2.26172 9.58984C1.97005 9.29818 1.82422 8.95182 1.82422 8.55078V3H2.69922V8.55078C2.69922 8.71484 2.75391 8.85156 2.86328 8.96094C2.99089 9.07031 3.13672 9.125 3.30078 9.125C3.46484 9.125 3.60156 9.07031 3.71094 8.96094C3.82031 8.85156 3.875 8.71484 3.875 8.55078V2.42578C3.875 2.02474 3.72917 1.67839 3.4375 1.38672C3.16406 1.09505 2.82682 0.949219 2.42578 0.949219C2.02474 0.949219 1.67839 1.09505 1.38672 1.38672C1.09505 1.67839 0.949219 2.02474 0.949219 2.42578V9.69922C0.949219 10.3372 1.17708 10.8932 1.63281 11.3672C2.10677 11.8229 2.66276 12.0508 3.30078 12.0508C3.9388 12.0508 4.48568 11.8229 4.94141 11.3672C5.39714 10.8932 5.625 10.3372 5.625 9.69922V3Z" fill="#3C3C3B"/>
</svg>
