<svg width="62" height="47" viewBox="0 0 62 47" fill="none" xmlns="http://www.w3.org/2000/svg">
<path d="M52.8503 6.90002H9.05029C8.55029 6.90002 8.05029 7.30002 8.05029 7.90002V8.00002V40.4V40.5C8.05029 41 8.45029 41.5 9.05029 41.5H52.8503C53.3503 41.5 53.8503 41.1 53.8503 40.5V40.4V27.1C53.8503 26.6 53.4503 26.1 52.8503 26.1H45.9503C46.4503 22.7 49.3503 20.1 52.8503 20.1C53.3503 20.1 53.8503 19.7 53.8503 19.1V8.00002V7.90002C53.8503 7.30002 53.3503 6.90002 52.8503 6.90002ZM9.95029 8.80002H37.6503V22.8H22.9503C22.4503 18.4 18.7503 14.9 14.1503 14.9C13.6503 14.9 13.1503 15.3 13.1503 15.9V22.8H9.95029V8.80002ZM37.6503 39.5H9.95029V24.7H14.0503C14.5503 24.7 15.0503 24.3 15.0503 23.7V23.6V23.5V16.9C18.4503 17.4 21.0503 20.3 21.0503 23.8C21.0503 24.3 21.4503 24.8 22.0503 24.8H37.6503V27.5C33.2503 28 29.7503 31.7 29.7503 36.3C29.7503 36.8 30.1503 37.3 30.7503 37.3H37.6503V39.5ZM51.9503 18.3C47.5503 18.8 44.0503 22.5 44.0503 27.1C44.0503 27.6 44.4503 28.1 45.0503 28.1H51.9503V39.6H39.5503V36.4C39.5503 35.9 39.1503 35.4 38.5503 35.4H31.6503C32.1503 32 35.0503 29.4 38.5503 29.4C39.0503 29.4 39.5503 29 39.5503 28.4V8.80002H51.9503V18.3Z" fill="#2F797A"/>
<path d="M59.9502 0H1.9502C1.4502 0 0.950195 0.4 0.950195 1V45.8C0.950195 46.3 1.3502 46.8 1.9502 46.8H60.0502C60.5502 46.8 61.0502 46.4 61.0502 45.8V1C60.9502 0.5 60.5502 0 59.9502 0ZM59.0502 44.9H17.1502H2.8502V1.9H59.0502V44.9Z" fill="#2F797A"/>
</svg>
