<svg width="120" height="54" viewBox="0 0 120 54" fill="none" xmlns="http://www.w3.org/2000/svg">
<g clip-path="url(#clip0_3_25)">
<path d="M51.7631 3.99731C51.7227 3.75504 51.642 3.39165 51.319 3.06864C50.9959 2.74562 50.6326 2.62449 50.3903 2.58412C50.148 2.54374 49.9865 2.58412 49.8654 2.58412C49.5828 2.62449 49.4213 2.66487 49.3001 2.74562C48.7348 2.94751 48.3715 3.18977 47.9677 3.39165L47.9273 3.43203L47.8869 3.47241C41.5881 7.91386 34.8856 11.7497 27.8196 14.9394C26.4468 12.6783 25.1951 10.3365 23.9838 7.95424C23.2571 6.50067 22.5303 5.00673 21.8035 3.55316C21.4401 2.82638 21.0767 2.01884 20.5114 1.25168C20.3499 1.0498 20.1884 0.847913 19.9865 0.646029C19.7847 0.444145 19.5424 0.201884 19.0175 0.0807536C18.7752 -8.00937e-08 18.4118 -8.00937e-08 18.1292 0.0807536C17.8062 0.161507 17.6043 0.363391 17.4428 0.524899C17.1602 0.847913 16.9986 1.13055 16.9179 1.37281C16.5141 2.38223 16.4334 3.23015 16.3526 4.07806C16.2719 4.92597 16.2315 5.77389 16.1911 6.6218C16.1507 8.31763 16.1911 9.97308 16.2315 11.6285C16.3526 14.2126 16.5141 16.7564 16.7564 19.3001C15.5451 19.7039 5.93539 22.288 2.38223 23.2571C-3.15745e-06 23.9031 -1.25169 25.1144 1.81695 27.3755C2.66487 27.9811 9.97308 33.6743 18.7752 35.6124C19.0579 37.4697 19.3809 39.327 19.7443 41.1844C20.0673 42.7994 20.3903 44.4549 20.7941 46.07C21.1978 47.685 21.6016 49.3405 22.2476 50.9959C22.4091 51.3997 22.611 51.8438 22.8533 52.288C22.9744 52.5303 23.1359 52.7725 23.3782 53.0551C23.4993 53.1763 23.6608 53.3378 23.9031 53.4993C24.1454 53.6608 24.5491 53.8223 25.0336 53.7819C25.5182 53.7416 25.9219 53.4993 26.1238 53.2974C26.3661 53.0955 26.4872 52.934 26.568 52.7725C26.7698 52.4495 26.891 52.2072 26.9717 51.965L27.3755 50.7537C27.9004 49.2193 28.4657 47.685 29.0713 46.1911C30.2019 43.284 31.4536 40.4172 32.786 37.5908C32.8264 37.5908 32.8667 37.5908 32.9071 37.5908C36.9044 37.712 40.9017 37.4697 44.8587 36.9852C40.9017 37.3082 36.9852 37.3082 33.0283 37.0659C34.4818 34.0377 36.0161 31.0902 37.6312 28.183C41.5881 31.292 45.8681 33.8358 50.2288 36.2988C46.0296 33.4724 41.79 30.6864 38.035 27.4159C39.4078 24.9529 40.8614 22.4899 42.3553 20.0269C44.0511 17.2409 45.8277 14.4953 47.6447 11.7497C48.533 10.3768 49.4616 9.00403 50.3499 7.55047C50.5518 7.18708 50.7941 6.82368 50.996 6.41992C51.1978 6.01615 51.4401 5.65276 51.642 5.08748C51.6824 4.92597 51.7631 4.76447 51.7631 4.5222C51.7631 4.44145 51.7631 4.3607 51.7631 4.27994C51.8035 4.19919 51.8035 4.11844 51.7631 3.99731ZM5.45087 27.7793C2.74562 25.72 3.3109 25.4374 6.13728 24.5895C8.76177 23.782 15.8681 21.9246 16.9583 21.6016C17.2813 24.8721 17.6851 28.1426 18.1292 31.4132C18.2907 32.4226 18.4522 33.4724 18.6137 34.4818C12.3957 32.2611 6.98519 28.9502 5.45087 27.7793ZM18.4926 11.5074C18.4118 9.89232 18.3311 8.23687 18.3311 6.6218C18.3715 3.55316 19.0579 2.82638 20.7537 5.85464C21.2786 6.82368 21.8035 7.79273 22.3284 8.76177C23.5801 11.0633 24.9125 13.3244 26.3257 15.5047C25.9623 15.6662 25.5989 15.8277 25.2355 15.9892C23.2167 16.8775 21.1575 17.6851 19.0982 18.4118C18.856 16.1507 18.6541 13.8493 18.4926 11.5074ZM26.4065 45.1817C25.8008 46.716 25.2759 48.2503 24.7106 49.825C24.1857 48.4522 23.782 46.9582 23.3782 45.4643C22.9744 43.8896 22.6514 42.3149 22.3284 40.6998C22.0458 39.2463 21.7631 37.7523 21.5209 36.2584C24.2261 36.8237 26.9314 37.1871 29.677 37.3889C28.506 39.9731 27.4159 42.5572 26.4065 45.1817ZM30.323 36.0161C30.2019 36.2584 30.0807 36.541 29.9596 36.7833C27.0525 36.4603 24.1453 35.9758 21.319 35.249C21.0767 33.8358 20.8344 32.463 20.6326 31.0498C20.1884 27.6177 19.7039 24.2261 19.3405 20.7941C21.642 20.0269 23.9435 19.179 26.2046 18.2907C26.7295 18.0888 27.214 17.8466 27.7389 17.6447C29.5962 20.2692 31.6554 22.7322 33.9569 24.9529C34.4011 25.397 34.8856 25.8008 35.3701 26.2449C33.5935 29.4347 31.8977 32.6648 30.323 36.0161ZM43.2436 13.284C42.113 15.0202 40.9825 16.7564 39.8923 18.533C38.4791 20.7941 37.1467 23.0552 35.8546 25.397C35.4509 25.0336 35.0875 24.6299 34.6837 24.2261C32.5841 22.0457 30.7672 19.6231 29.1117 17.0794C33.1494 15.3432 37.0659 13.3647 40.8614 11.1844C43.8492 9.44818 46.716 7.91386 43.2436 13.284Z" fill="white"/>
<path d="M54.0242 18.7752H57.5774L60.1211 30.6056H60.1615L62.9879 18.7752H66.3795L62.0592 35.0471H58.0619L54.0242 18.7752Z" fill="white"/>
<path d="M67.1467 35.0471V18.7752H76.07V21.2786H70.5787V25.2759H75.6258V27.7793H70.5787V32.5437H76.2315V35.0471H67.1467Z" fill="white"/>
<path d="M84.5087 23.782C84.5491 22.288 84.2665 20.9556 82.4899 20.9556C80.3499 20.9556 80.3499 23.8223 80.3499 26.9717C80.3499 32.0592 80.8344 32.9879 82.7725 32.9879C83.3378 32.9879 83.9435 32.8667 84.4684 32.6649V29.0713H82.611V26.568H87.86V34.8452C86.9313 35.0067 84.5895 35.3701 83.257 35.3701C77.5235 35.3701 76.8775 32.9879 76.8775 26.8102C76.8775 22.6918 77.0794 18.533 82.6514 18.533C86.0027 18.533 88.0619 20.3903 87.86 23.8223L84.5087 23.782Z" fill="white"/>
<path d="M88.8694 35.0471L93.3916 18.7348H97.8735L102.315 35.0471H98.7214L97.8331 31.4536H93.1898L92.2611 35.0471H88.8694ZM95.4509 21.8842H95.4105L93.8358 28.9098H97.1063L95.4509 21.8842Z" fill="white"/>
<path d="M108.089 18.7752H104.697V35.0875H108.089V18.7752Z" fill="white"/>
<path d="M120 18.7752V21.4805H116.205V35.0471H112.813V21.4805H109.018V18.7752H120Z" fill="white"/>
</g>
<defs>
<clipPath id="clip0_3_25">
<rect width="120" height="53.8223" fill="white"/>
</clipPath>
</defs>
</svg>
