<svg width="80" height="84" viewBox="0 0 80 84" fill="none" xmlns="http://www.w3.org/2000/svg">
<path d="M79.5039 6.13953C79.4419 5.76744 79.3179 5.2093 78.8217 4.71318C78.3256 4.21705 77.7675 4.03101 77.3954 3.96899C77.0233 3.90698 76.7752 3.96899 76.5892 3.96899C76.1551 4.03101 75.907 4.09302 75.721 4.21705C74.8527 4.52713 74.2946 4.89922 73.6744 5.2093L73.6124 5.27132L73.5504 5.33333C63.876 12.155 53.5814 18.0465 42.7287 22.9457C40.6202 19.4729 38.6977 15.876 36.8372 12.2171C35.721 9.9845 34.6047 7.68992 33.4884 5.45736C32.9303 4.34108 32.3721 3.10077 31.5039 1.92248C31.2558 1.6124 31.0078 1.30232 30.6977 0.992246C30.3876 0.682169 30.0155 0.310076 29.2093 0.124029C28.8372 -1.89358e-06 28.2791 -1.89358e-06 27.845 0.124029C27.3489 0.24806 27.0388 0.558138 26.7907 0.8062C26.3566 1.30232 26.1086 1.73643 25.9845 2.10853C25.3644 3.65891 25.2403 4.96124 25.1163 6.26356C24.9923 7.56589 24.9303 8.86822 24.8682 10.1705C24.8062 12.7752 24.8682 15.3178 24.9303 17.8605C25.1163 21.8295 25.3644 25.7364 25.7365 29.6434C23.876 30.2636 9.1163 34.2326 3.65894 35.7209C2.4485e-05 36.7132 -1.92246 38.5736 2.79072 42.0465C4.09305 42.9767 15.3179 51.7209 28.8372 54.6977C29.2713 57.5504 29.7675 60.4031 30.3256 63.2558C30.8217 65.7364 31.3179 68.2791 31.938 70.7597C32.5582 73.2403 33.1783 75.783 34.1706 78.3256C34.4186 78.9457 34.7287 79.6279 35.1008 80.3101C35.2868 80.6822 35.5349 81.0543 35.907 81.4884C36.093 81.6744 36.3411 81.9225 36.7132 82.1705C37.0853 82.4186 37.7055 82.6667 38.4496 82.6047C39.1938 82.5426 39.814 82.1705 40.1241 81.8605C40.4961 81.5504 40.6822 81.3023 40.8062 81.0543C41.1163 80.5581 41.3024 80.186 41.4264 79.814L42.0465 77.9535C42.8527 75.5969 43.721 73.2403 44.6512 70.9457C46.3876 66.4806 48.3101 62.0775 50.3566 57.7364C50.4186 57.7364 50.4806 57.7364 50.5427 57.7364C56.6822 57.9225 62.8217 57.5504 68.8992 56.8062C62.8217 57.3023 56.8062 57.3023 50.7287 56.9302C52.9613 52.2791 55.3179 47.7519 57.7985 43.2868C63.876 48.062 70.4496 51.969 77.1473 55.7519C70.6977 51.4109 64.1861 47.1318 58.4186 42.1085C60.5272 38.3256 62.7597 34.5426 65.0543 30.7597C67.6589 26.4806 70.3876 22.2636 73.1783 18.0465C74.5427 15.938 75.969 13.8295 77.3334 11.5969C77.6434 11.0388 78.0155 10.4806 78.3256 9.86046C78.6357 9.24031 79.0078 8.68217 79.3179 7.81395C79.3799 7.56589 79.5039 7.31783 79.5039 6.94573C79.5039 6.8217 79.5039 6.69767 79.5039 6.57364C79.5659 6.44961 79.5659 6.32558 79.5039 6.13953ZM8.37212 42.6667C4.21708 39.5039 5.0853 39.0698 9.42638 37.7674C13.4574 36.5271 24.3721 33.6744 26.0465 33.1783C26.5427 38.2016 27.1628 43.2248 27.845 48.2481C28.093 49.7985 28.3411 51.4109 28.5892 52.9612C19.0388 49.5504 10.7287 44.4651 8.37212 42.6667ZM28.4031 17.6744C28.2791 15.1938 28.1551 12.6512 28.1551 10.1705C28.2171 5.45736 29.2713 4.34108 31.876 8.99225C32.6822 10.4806 33.4884 11.969 34.2946 13.4574C36.2171 16.9922 38.2636 20.4651 40.4341 23.814C39.876 24.062 39.3179 24.3101 38.7597 24.5581C35.6589 25.9225 32.4961 27.1628 29.3334 28.2791C28.9613 24.8062 28.6512 21.2713 28.4031 17.6744ZM40.5582 69.3954C39.6279 71.7519 38.8217 74.1085 37.9535 76.5271C37.1473 74.4186 36.5272 72.124 35.907 69.8295C35.2868 67.4109 34.7907 64.9923 34.2946 62.5116C33.8605 60.2791 33.4264 57.9845 33.0543 55.6899C37.2093 56.5581 41.3644 57.1163 45.5814 57.4264C43.783 61.3953 42.1086 65.3643 40.5582 69.3954ZM46.5737 55.3178C46.3876 55.6899 46.2016 56.124 46.0155 56.4961C41.5504 56 37.0853 55.2558 32.7442 54.1395C32.3721 51.969 32 49.8605 31.6899 47.6899C31.0078 42.4186 30.2636 37.2093 29.7055 31.938C33.2403 30.7597 36.7752 29.4574 40.2481 28.093C41.0543 27.7829 41.7985 27.4109 42.6047 27.1008C45.4574 31.1318 48.6202 34.9147 52.1551 38.3256C52.8372 39.0078 53.5814 39.6279 54.3256 40.3101C51.5969 45.2093 48.9923 50.1705 46.5737 55.3178ZM66.4186 20.4031C64.6822 23.0698 62.9458 25.7364 61.2713 28.4651C59.1008 31.938 57.0543 35.4109 55.0698 39.0078C54.4496 38.4496 53.8915 37.8295 53.2713 37.2093C50.0465 33.8605 47.2558 30.1395 44.7132 26.2326C50.9148 23.5659 56.9303 20.5271 62.7597 17.1783C67.3489 14.5116 71.752 12.155 66.4186 20.4031Z" fill="#F05A28"/>
</svg>
