<svg width="60" height="60" viewBox="0 0 60 60" fill="none" xmlns="http://www.w3.org/2000/svg">
<path d="M58.044 56.088H46.956V13.044H48.912C49.992 13.044 50.868 12.168 50.868 11.088C50.868 10.008 49.992 9.132 48.912 9.132C47.076 9.132 44.88 9.132 43.044 9.132V3.912H45C46.08 3.912 46.956 3.036 46.956 1.956C46.956 0.876 46.08 0 45 0C44.724 0 13.992 0 13.692 0C12.612 0 11.736 0.876 11.736 1.956C11.736 3.036 12.612 3.912 13.692 3.912H15.648V9.132C13.812 9.132 11.604 9.132 9.78 9.132C8.7 9.132 7.824 10.008 7.824 11.088C7.824 12.168 8.7 13.044 9.78 13.044H11.736V56.088H1.956C0.876 56.088 0 56.964 0 58.044C0 59.124 0.876 60 1.956 60C2.496 60 57.564 60 58.044 60C59.124 60 60 59.124 60 58.044C60 56.964 59.124 56.088 58.044 56.088ZM19.56 3.912H39.12V9.132H19.56V3.912ZM43.044 56.088H15.648V13.044C16.248 13.044 42.18 13.044 43.044 13.044V56.088Z" fill="#F05A28"/>
<path d="M23.472 24.78H19.56V28.692H23.472V24.78Z" fill="#F05A28"/>
<path d="M23.472 32.604H19.56V36.516H23.472V32.604Z" fill="#F05A28"/>
<path d="M23.472 40.4399H19.56V44.3519H23.472V40.4399Z" fill="#F05A28"/>
<path d="M23.472 48.264H19.56V52.176H23.472V48.264Z" fill="#F05A28"/>
<path d="M31.308 24.78H27.396V28.692H31.308V24.78Z" fill="#F05A28"/>
<path d="M31.308 32.604H27.396V36.516H31.308V32.604Z" fill="#F05A28"/>
<path d="M31.308 40.4399H27.396V44.3519H31.308V40.4399Z" fill="#F05A28"/>
<path d="M31.308 48.264H27.396V52.176H31.308V48.264Z" fill="#F05A28"/>
<path d="M39.132 24.78H35.22V28.692H39.132V24.78Z" fill="#F05A28"/>
<path d="M23.472 16.9561H19.56V20.8681H23.472V16.9561Z" fill="#F05A28"/>
<path d="M31.308 16.9561H27.396V20.8681H31.308V16.9561Z" fill="#F05A28"/>
<path d="M39.132 16.9561H35.22V20.8681H39.132V16.9561Z" fill="#F05A28"/>
<path d="M39.132 32.604H35.22V36.516H39.132V32.604Z" fill="#F05A28"/>
<path d="M39.132 40.4399H35.22V44.3519H39.132V40.4399Z" fill="#F05A28"/>
<path d="M39.132 48.264H35.22V52.176H39.132V48.264Z" fill="#F05A28"/>
</svg>
