<svg width="60" height="60" viewBox="0 0 60 60" fill="none" xmlns="http://www.w3.org/2000/svg">
<g clip-path="url(#clip0_63_565)">
<path d="M42.924 39.684V39.66V27.684C42.924 23.628 39.624 20.328 35.568 20.328H24.408C20.352 20.328 17.052 23.628 17.052 27.684V39.684C16.968 41.928 18.708 43.848 20.952 43.968L21.588 44.004V55.2C21.588 57.828 23.724 59.964 26.352 59.964H33.612C34.884 59.964 36.084 59.472 36.984 58.572C37.884 57.672 38.376 56.472 38.376 55.2C38.376 55.152 38.376 55.092 38.376 55.044V55.02V44.004L39.012 43.968C41.268 43.836 43.02 41.916 42.924 39.684ZM39.744 27.684V40.776H35.208V55.104C35.208 55.98 34.5 56.688 33.624 56.688H26.364C25.488 56.688 24.78 55.98 24.78 55.104V40.776H20.244V27.684C20.232 26.592 20.64 25.548 21.408 24.768C22.176 23.976 23.208 23.532 24.3 23.52C24.336 23.52 24.372 23.52 24.408 23.52H35.556C35.58 23.52 35.592 23.52 35.616 23.52C37.86 23.52 39.696 25.332 39.732 27.588C39.744 27.624 39.744 27.66 39.744 27.684Z" fill="#F05A28"/>
<path d="M30 16.764C34.632 16.764 38.388 12.996 38.388 8.37595C38.388 3.75595 34.632 -0.0240479 30 -0.0240479C25.368 -0.0240479 21.612 3.74395 21.612 8.36395C21.612 12.984 25.368 16.764 30 16.764ZM30 3.15595C32.868 3.15595 35.208 5.49595 35.208 8.36395C35.208 11.232 32.868 13.572 30 13.572C27.132 13.572 24.792 11.232 24.792 8.36395C24.792 5.49595 27.132 3.15595 30 3.15595Z" fill="#F05A28"/>
</g>
<defs>
<clipPath id="clip0_63_565">
<rect width="60" height="60" fill="white"/>
</clipPath>
</defs>
</svg>
