<svg width="60" height="60" viewBox="0 0 60 60" fill="none" xmlns="http://www.w3.org/2000/svg">
<path d="M60 29.064C60 28.992 59.988 28.932 59.976 28.86C59.7 21.276 56.604 14.184 51.216 8.784C45.552 3.12 38.016 0 30 0C21.984 0 14.448 3.12 8.784 8.784C3.12 14.448 0 21.984 0 30C0 38.016 3.12 45.552 8.784 51.216C14.448 56.88 21.984 60 30 60C38.016 60 45.552 56.88 51.216 51.216C56.88 45.552 60 38.016 60 30C60 29.736 60 29.46 59.988 29.196C60 29.148 60 29.112 60 29.064ZM10.032 10.032C15.36 4.704 22.452 1.764 30 1.764C37.548 1.764 44.64 4.704 49.968 10.032C54.876 14.94 57.744 21.324 58.176 28.176H55.296V28.116C55.296 27.624 54.9 27.24 54.42 27.24H51.54V25.308C51.54 24.816 51.144 24.432 50.664 24.432H48.732V22.5C48.732 22.008 48.336 21.624 47.856 21.624C47.364 21.624 46.98 22.02 46.98 22.5V24.432H46.92C46.428 24.432 46.044 24.828 46.044 25.308V25.368H44.988V15.912C44.988 15.42 44.592 15.036 44.112 15.036H40.356C39.864 15.036 39.48 15.432 39.48 15.912V24.42H38.4V22.488C38.4 21.996 38.004 21.612 37.524 21.612H34.644V15.912C34.644 15.6 34.476 15.312 34.212 15.156L29.52 12.336C29.244 12.168 28.908 12.168 28.632 12.324C28.356 12.48 28.188 12.768 28.188 13.092V17.844H26.196V11.232V7.452C26.196 6.96 25.8 6.576 25.32 6.576C24.828 6.576 24.444 6.972 24.444 7.452V10.608L20.28 12.276C19.944 12.408 19.728 12.732 19.728 13.092V22.548H17.736V20.616C17.736 20.124 17.34 19.74 16.86 19.74H13.104C12.612 19.74 12.228 20.136 12.228 20.616V23.772L10.236 24.576V22.5C10.236 22.008 9.84 21.624 9.36 21.624C8.88 21.624 8.484 22.02 8.484 22.5V25.284L8.1 25.44C7.764 25.572 7.548 25.896 7.548 26.256V27.252H4.668C4.176 27.252 3.792 27.648 3.792 28.128V29.124H1.776C1.992 21.912 4.908 15.156 10.032 10.032ZM58.236 30C58.236 31.284 58.152 32.556 57.984 33.816H55.308V29.94H58.248C58.236 29.964 58.236 29.976 58.236 30ZM51.54 33.816V29.004H53.532V33.816H51.54ZM44.976 33.816V27.12H46.032V33.816H44.976ZM38.4 33.816V30.936V26.184H39.456V33.816H38.4ZM32.76 33.816V32.628L36.636 31.98V33.816H32.76ZM30 52.608C29.508 52.608 29.124 53.004 29.124 53.484V58.224C25.584 58.116 22.152 57.36 18.972 56.004L30.012 36.48L41.052 56.004C37.872 57.36 34.44 58.116 30.9 58.224V53.484C30.876 52.992 30.492 52.608 30 52.608ZM21.492 33.816V13.692L24.432 12.516V33.816H21.492ZM17.724 33.816V30V24.3H19.716V33.816H17.724ZM12.096 33.816V30.876H15.972V33.816H12.096ZM9.276 33.816V26.844L12.216 25.668V29.124H11.22C10.728 29.124 10.344 29.52 10.344 30V33.816H9.276ZM5.52 33.816V29.004H7.512V33.816H5.52ZM2.016 33.816C1.884 32.844 1.8 31.872 1.776 30.876H3.756V33.816H2.016ZM15.972 29.124H13.98V24.384V21.492H15.972V29.124ZM26.184 19.608H28.176V33.816H26.184V19.608ZM30.012 33.816H29.976H29.928V14.652L32.868 16.416V30.828L31.728 31.02C31.308 31.092 30.996 31.464 30.996 31.884V33.816H30.012ZM36.636 30.192L34.644 30.528V23.364H36.636V30.192ZM41.208 16.788H43.2V33.816H41.208V16.788ZM47.784 26.184H49.776V33.816H47.784V26.184ZM2.304 35.58H20.604H25.296H28.488L17.364 55.272C14.688 53.928 12.216 52.152 10.032 49.968C6.036 45.972 3.384 40.992 2.304 35.58ZM49.968 49.968C47.784 52.152 45.312 53.928 42.636 55.272L31.512 35.58H40.332H44.088H46.908H50.664H57.684C56.616 40.992 53.964 45.972 49.968 49.968Z" fill="#F05A28"/>
<path d="M30.876 47.844C30.876 47.352 30.48 46.968 30 46.968C29.52 46.968 29.124 47.364 29.124 47.844V50.664C29.124 51.156 29.52 51.54 30 51.54C30.48 51.54 30.876 51.144 30.876 50.664V47.844Z" fill="#F05A28"/>
<path d="M30 45.912C30.492 45.912 30.876 45.516 30.876 45.036V44.1C30.876 43.608 30.48 43.224 30 43.224C29.52 43.224 29.124 43.62 29.124 44.1V45.036C29.124 45.516 29.508 45.912 30 45.912Z" fill="#F05A28"/>
<path d="M30 42.156C30.228 42.156 30.456 42.06 30.624 41.892C30.792 41.724 30.888 41.496 30.888 41.268C30.888 41.04 30.792 40.812 30.624 40.644C30.456 40.476 30.24 40.38 30 40.38C29.76 40.38 29.544 40.476 29.376 40.644C29.208 40.812 29.112 41.04 29.112 41.268C29.112 41.496 29.208 41.724 29.376 41.892C29.544 42.06 29.772 42.156 30 42.156Z" fill="#F05A28"/>
</svg>
