<svg width="58" height="60" viewBox="0 0 58 60" fill="none" xmlns="http://www.w3.org/2000/svg">
<g clip-path="url(#clip0_63_574)">
<path d="M57.403 4.43279C57.3582 4.16413 57.2687 3.76114 56.9104 3.40294C56.5522 3.04473 56.1493 2.9104 55.8806 2.86562C55.6119 2.82085 55.4328 2.86562 55.2985 2.86562C54.9851 2.9104 54.806 2.95517 54.6716 3.04473C54.0448 3.26861 53.6418 3.53726 53.194 3.76114L53.1493 3.80592L53.1045 3.8507C46.1194 8.77607 38.6866 13.0298 30.8507 16.5671C29.3284 14.0597 27.9403 11.4626 26.597 8.82085C25.7911 7.20891 24.9851 5.55219 24.1791 3.94025C23.7761 3.13428 23.3731 2.23876 22.7463 1.38801C22.5672 1.16413 22.3881 0.940249 22.1642 0.716369C21.9403 0.492488 21.6716 0.223831 21.0896 0.089503C20.8209 -4.91906e-05 20.4179 -4.91906e-05 20.1045 0.089503C19.7463 0.179055 19.5224 0.402936 19.3433 0.58204C19.0299 0.940249 18.8508 1.25368 18.7612 1.52234C18.3134 2.64174 18.2239 3.58204 18.1343 4.52234C18.0448 5.46264 18 6.40294 17.9552 7.34323C17.9105 9.22383 17.9552 11.0597 18 12.8955C18.1343 15.7611 18.3134 18.582 18.5821 21.4029C17.2388 21.8507 6.5821 24.7164 2.6418 25.791C7.65792e-06 26.5074 -1.38805 27.8507 2.01493 30.3582C2.95523 31.0298 11.0597 37.3432 20.8209 39.4925C21.1343 41.5522 21.4925 43.6119 21.8955 45.6716C22.2537 47.4626 22.6119 49.2985 23.0597 51.0895C23.5075 52.8805 23.9552 54.7164 24.6716 56.5522C24.8508 57 25.0746 57.4925 25.3433 57.985C25.4776 58.2537 25.6567 58.5223 25.9254 58.8358C26.0597 58.9701 26.2388 59.1492 26.5075 59.3283C26.7761 59.5074 27.2239 59.6865 27.7612 59.6417C28.2985 59.597 28.7463 59.3283 28.9702 59.1044C29.2388 58.8805 29.3731 58.7014 29.4627 58.5223C29.6866 58.1641 29.8209 57.8955 29.9105 57.6268L30.3582 56.2835C30.9403 54.582 31.5672 52.8805 32.2388 51.2238C33.4925 47.9999 34.8806 44.8208 36.3582 41.6865C36.403 41.6865 36.4478 41.6865 36.4925 41.6865C40.9254 41.8208 45.3582 41.5522 49.7463 41.0149C45.3582 41.3731 41.0149 41.3731 36.6269 41.1044C38.2388 37.7462 39.9403 34.4776 41.7313 31.2537C46.1194 34.7014 50.8657 37.5223 55.7015 40.2537C51.0448 37.1194 46.3433 34.0298 42.1791 30.4029C43.7015 27.6716 45.3134 24.9402 46.9701 22.2089C48.8507 19.1194 50.8209 16.0746 52.8358 13.0298C53.8209 11.5074 54.8507 9.98503 55.8358 8.37309C56.0597 7.9701 56.3284 7.56711 56.5522 7.11935C56.7761 6.67159 57.0448 6.26861 57.2687 5.64174C57.3134 5.46264 57.403 5.28353 57.403 5.01488C57.403 4.92532 57.403 4.83577 57.403 4.74622C57.4478 4.65667 57.4478 4.56711 57.403 4.43279ZM6.04478 30.8059C3.04478 28.5223 3.67165 28.2089 6.80598 27.2686C9.71642 26.3731 17.597 24.3134 18.806 23.9552C19.1642 27.582 19.6119 31.2089 20.1045 34.8358C20.2836 35.9552 20.4627 37.1194 20.6418 38.2388C13.7463 35.7761 7.74628 32.1044 6.04478 30.8059ZM20.5075 12.7611C20.4179 10.9701 20.3284 9.13428 20.3284 7.34323C20.3731 3.94025 21.1343 3.13428 23.0149 6.49249C23.597 7.56711 24.1791 8.64174 24.7612 9.71637C26.1493 12.2686 27.6269 14.7761 29.194 17.194C28.791 17.3731 28.3881 17.5522 27.9851 17.7313C25.7463 18.7164 23.4627 19.6119 21.1791 20.4179C20.9105 17.9104 20.6866 15.3582 20.5075 12.7611ZM29.2836 50.1044C28.6119 51.8059 28.0299 53.5074 27.403 55.2537C26.8209 53.7313 26.3731 52.0746 25.9254 50.4179C25.4776 48.6716 25.1194 46.9253 24.7612 45.1343C24.4478 43.5223 24.1343 41.8656 23.8657 40.2089C26.8657 40.8358 29.8657 41.2388 32.9104 41.4626C31.6119 44.3283 30.403 47.194 29.2836 50.1044ZM33.6269 39.9402C33.4925 40.2089 33.3582 40.5223 33.2239 40.791C30 40.4328 26.7761 39.8955 23.6418 39.0895C23.3731 37.5223 23.1045 36 22.8806 34.4328C22.3881 30.6268 21.8508 26.8656 21.4478 23.0597C24 22.2089 26.5522 21.2686 29.0597 20.2835C29.6418 20.0597 30.1791 19.791 30.7612 19.5671C32.8209 22.4776 35.1045 25.2089 37.6567 27.6716C38.1493 28.1641 38.6866 28.6119 39.2239 29.1044C37.2537 32.6417 35.3731 36.2238 33.6269 39.9402ZM47.9552 14.7313C46.7015 16.6567 45.4478 18.582 44.2388 20.5522C42.6716 23.0597 41.194 25.5671 39.7612 28.1641C39.3134 27.7611 38.9104 27.3134 38.4627 26.8656C36.1343 24.4477 34.1194 21.7611 32.2836 18.9402C36.7612 17.0149 41.1045 14.8208 45.3134 12.4029C48.6269 10.4776 51.806 8.77607 47.9552 14.7313Z" fill="#F05A28"/>
</g>
<defs>
<clipPath id="clip0_63_574">
<rect width="57.7612" height="60" fill="white"/>
</clipPath>
</defs>
</svg>
