<svg width="60" height="60" viewBox="0 0 60 60" fill="none" xmlns="http://www.w3.org/2000/svg">
<path d="M52.668 41.0041C52.14 40.5841 51.372 40.6681 50.952 41.1961C50.388 41.8921 49.788 42.5761 49.152 43.2241C48.672 43.7041 48.684 44.4841 49.164 44.9521C49.404 45.192 49.716 45.3 50.028 45.3C50.34 45.3 50.664 45.18 50.904 44.9401C51.6 44.2321 52.26 43.4881 52.872 42.7321C53.28 42.1921 53.196 41.4241 52.668 41.0041Z" fill="#F05A28"/>
<path d="M47.868 46.092C47.46 45.552 46.692 45.444 46.152 45.852C41.52 49.356 35.916 51.396 29.928 51.732C29.256 51.768 28.74 52.344 28.776 53.028C28.812 53.676 29.352 54.18 30 54.18C30.024 54.18 30.048 54.18 30.072 54.18C36.54 53.808 42.612 51.612 47.628 47.808C48.168 47.4 48.276 46.632 47.868 46.092Z" fill="#F05A28"/>
<path d="M59.148 22.896C58.464 20.088 57.384 17.4 55.932 14.904C53.856 11.352 51.132 8.316 47.832 5.868C42.636 2.028 36.468 0 30 0C28.188 0 26.376 0.168 24.6 0.492C19.572 1.404 14.82 3.624 10.872 6.9C5.052 11.712 1.296 18.456 0.276 25.896C0.096 27.264 0 28.644 0 30C0 35.34 1.416 40.584 4.116 45.168C6.72 49.596 10.428 53.316 14.868 55.908C17.388 57.384 20.088 58.476 22.92 59.16C25.236 59.724 27.612 60 30 60C35.796 60 41.436 58.344 46.284 55.2C51.024 52.128 54.792 47.82 57.18 42.72C59.052 38.724 60 34.44 60 30C60 27.6 59.712 25.212 59.148 22.896ZM48.3 9.468C49.8 10.788 51.144 12.252 52.32 13.848L49.956 13.26C49.2 13.068 48.42 13.272 47.82 13.812C47.22 14.352 46.896 15.132 46.92 15.972C46.92 16.008 46.908 16.044 46.872 16.056L45.132 17.28C45.108 17.304 45.06 17.304 45.036 17.28L42.6 15.792C42.384 15.66 42.276 15.384 42.324 15.12L42.876 12.576C42.936 12.3 43.152 12.108 43.416 12.096L45.492 12.036C46.872 11.988 48.024 10.896 48.3 9.468ZM14.844 50.052L14.496 52.692C6.984 47.604 2.388 39.072 2.388 30C2.388 29.196 2.424 28.392 2.496 27.576L4.092 27.852C4.5 27.924 4.908 27.96 5.316 27.96H6.132C7.26 27.96 8.376 28.356 9.276 29.088L10.5 30.072C10.608 30.156 10.668 30.288 10.692 30.42L10.86 32.088C10.884 32.352 10.716 32.604 10.464 32.64C9.072 32.88 8.028 34.212 8.052 35.748L8.136 41.616C8.148 42.288 8.352 42.912 8.724 43.44L10.668 46.2C11.592 47.508 12.828 48.48 14.268 49.008C14.664 49.164 14.904 49.596 14.844 50.052ZM22.548 56.4C20.532 55.836 18.576 55.044 16.728 54.048L17.208 50.412C17.436 48.732 16.512 47.124 15.036 46.572C14.052 46.2 13.2 45.54 12.564 44.64L10.62 41.88C10.56 41.796 10.524 41.688 10.524 41.58L10.44 35.712C10.44 35.46 10.608 35.244 10.836 35.196C12.336 34.932 13.392 33.444 13.224 31.812L13.056 30.144C12.972 29.292 12.552 28.5 11.916 27.996L10.692 27.012C9.384 25.956 7.764 25.38 6.132 25.38H5.316C5.04 25.38 4.752 25.356 4.476 25.308L2.844 25.02C4.008 18.744 7.332 13.08 12.312 8.94C15.828 6.024 20.028 4.02 24.48 3.132C25.152 3.744 25.68 4.524 26.004 5.412L26.076 5.592C26.244 6.06 26.364 6.54 26.412 7.044L26.472 7.608C26.58 8.616 26.436 9.636 26.064 10.56L25.416 12.156C24.996 13.2 24.288 14.076 23.4 14.688L22.596 15.24C21.78 15.804 21.3 16.8 21.348 17.844L21.456 20.208C21.456 20.328 21.408 20.412 21.36 20.46C21.312 20.508 21.24 20.556 21.132 20.544C21.036 20.532 20.952 20.472 20.904 20.376L19.908 18.372C19.56 17.676 18.96 17.16 18.264 16.956L14.748 15.9C13.824 15.624 12.84 15.708 11.964 16.128L11.124 16.536C9.36 17.4 8.4 19.512 8.832 21.552C9 22.356 9.384 23.1 9.924 23.688L12.204 26.16C12.336 26.304 12.456 26.448 12.576 26.604L14.136 28.692C14.832 29.616 15.852 30.144 16.956 30.144H16.968L21.228 30.132C21.66 30.132 22.068 30.384 22.296 30.792C22.812 31.74 23.676 32.424 24.672 32.652L26.268 33.024C26.616 33.108 26.916 33.348 27.096 33.684L27.864 35.22C28.176 35.832 28.644 36.324 29.22 36.648L32.844 38.64C33.144 38.808 33.312 39.156 33.276 39.516C33.252 39.72 33.156 39.912 33.012 40.056L31.632 41.376C31.248 41.748 30.936 42.228 30.756 42.744L30.456 43.608C30.36 43.872 30.18 44.088 29.928 44.196L28.464 44.856C27.216 45.42 26.4 46.728 26.4 48.192C26.4 48.36 26.364 48.516 26.292 48.672L22.548 56.4ZM30 57.408C28.32 57.408 26.628 57.252 24.984 56.952L28.428 49.848C28.68 49.332 28.812 48.756 28.812 48.168C28.812 47.748 29.04 47.388 29.4 47.22L30.864 46.56C31.716 46.176 32.388 45.42 32.712 44.496L33.012 43.632C33.06 43.5 33.132 43.38 33.228 43.284L34.608 41.964C35.184 41.412 35.568 40.644 35.664 39.804C35.832 38.364 35.136 36.96 33.948 36.3L30.324 34.308C30.18 34.224 30.06 34.104 29.988 33.948L29.22 32.412C28.716 31.404 27.828 30.696 26.796 30.456L25.2 30.084C24.864 30 24.564 29.772 24.396 29.448C23.748 28.248 22.548 27.504 21.264 27.504H21.252L16.992 27.516C16.62 27.516 16.272 27.336 16.032 27.024L14.472 24.936C14.304 24.708 14.124 24.492 13.944 24.3L11.664 21.828C11.436 21.588 11.28 21.276 11.208 20.94C11.028 20.1 11.424 19.224 12.156 18.864L12.996 18.456C13.356 18.276 13.764 18.24 14.148 18.36L17.664 19.416C17.736 19.44 17.808 19.5 17.844 19.572L18.84 21.576C19.272 22.428 20.052 23.004 20.952 23.088C21.732 23.172 22.5 22.884 23.064 22.296C23.628 21.708 23.928 20.892 23.892 20.052L23.784 17.688C23.784 17.568 23.832 17.46 23.916 17.4L24.72 16.848C26.016 15.96 27.036 14.688 27.66 13.164L28.308 11.568C28.848 10.224 29.064 8.748 28.908 7.284L28.848 6.72C28.776 6 28.608 5.292 28.356 4.62L28.284 4.44C28.056 3.816 27.756 3.228 27.408 2.688C28.284 2.604 29.172 2.568 30.048 2.568C35.82 2.568 41.328 4.308 46.008 7.608L46.02 8.808C46.02 9.144 45.78 9.42 45.468 9.432L43.392 9.492C42.048 9.528 40.896 10.548 40.596 11.964L40.044 14.508C39.744 15.876 40.332 17.328 41.46 18.024L43.908 19.536C44.292 19.776 44.712 19.884 45.132 19.884C45.6 19.884 46.08 19.74 46.488 19.44L48.228 18.216C48.948 17.7 49.38 16.812 49.356 15.876C49.356 15.864 49.356 15.828 49.392 15.792C49.428 15.756 49.464 15.768 49.476 15.768L52.152 16.44C52.224 16.452 52.284 16.476 52.356 16.476L54.252 16.776C55.08 18.264 55.752 19.812 56.292 21.42L54.444 20.94C54.372 20.916 54.3 20.904 54.216 20.892L52.2 20.544C50.004 20.16 47.772 20.964 46.236 22.704L45.936 23.052C45.036 24.072 44.424 25.332 44.172 26.712L43.404 30.924C43.14 32.388 43.284 33.9 43.836 35.268C44.796 37.668 46.884 39.336 49.284 39.636L49.656 39.684C50.688 39.816 51.744 39.684 52.716 39.3L53.988 38.808C54.216 38.724 54.468 38.796 54.624 39L54.792 39.228C54.876 39.336 54.912 39.468 54.924 39.6L54.984 41.844C50.328 51.312 40.584 57.408 30 57.408ZM56.544 37.56L56.4 37.368C55.824 36.6 54.972 36.18 54.096 36.18C53.76 36.18 53.424 36.24 53.1 36.372L51.828 36.864C51.192 37.104 50.508 37.2 49.848 37.116L49.476 37.068C47.916 36.876 46.572 35.796 45.948 34.236C45.588 33.348 45.492 32.376 45.672 31.416L46.44 27.204C46.608 26.304 47.004 25.488 47.58 24.828L47.88 24.48C48.876 23.352 50.328 22.836 51.744 23.088L53.76 23.436C53.772 23.436 53.784 23.436 53.808 23.448L57 24.288C57.396 26.16 57.6 28.068 57.6 29.988C57.612 32.592 57.252 35.124 56.544 37.56Z" fill="#F05A28"/>
</svg>
