<svg width="60" height="60" viewBox="0 0 60 60" fill="none" xmlns="http://www.w3.org/2000/svg">
<path d="M57.504 20.004H48.756V2.496H57.504C58.188 2.496 58.752 1.932 58.752 1.248C58.752 0.564 58.188 0 57.504 0H47.508C47.472 0 47.436 0.012 47.4 0.024C47.328 0.036 47.244 0.048 47.172 0.072C47.052 0.108 46.92 0.168 46.812 0.252H46.8C46.74 0.288 46.68 0.336 46.608 0.384L36.744 7.788C36.696 7.812 36.66 7.848 36.612 7.884L26.712 15.312C26.688 15.336 26.652 15.348 26.628 15.384L16.68 22.848C16.668 22.86 16.644 22.872 16.632 22.884L6.63602 30.372L1.77602 34.008C1.22402 34.416 1.11602 35.208 1.52402 35.76C1.93202 36.312 2.72402 36.42 3.27602 36.012L6.27602 33.756V49.992H2.49602C1.81202 49.992 1.24802 50.556 1.24802 51.24V58.74C1.24802 59.424 1.81202 59.988 2.49602 59.988H57.492C58.176 59.988 58.74 59.424 58.74 58.74V21.252C58.752 20.568 58.188 20.004 57.504 20.004ZM38.748 9.396L46.248 3.768V19.992H45C44.316 19.992 43.752 20.556 43.752 21.24V27.492H38.748V9.396ZM28.752 16.896L36.252 11.28V27.504H35.004C34.32 27.504 33.756 28.068 33.756 28.752V33.756H28.752V16.896ZM18.756 24.384L26.256 18.756V33.744H23.76C23.076 33.744 22.512 34.308 22.512 34.992V42.492H18.756V24.384ZM8.74802 31.884L16.248 26.256V42.492H13.752C13.068 42.492 12.504 43.056 12.504 43.74V49.992H8.74802C8.74802 50.004 8.74802 31.884 8.74802 31.884ZM56.256 57.504H3.75602V52.5H13.752C14.436 52.5 15 51.936 15 51.252V45H23.748C24.432 45 24.996 44.436 24.996 43.752V36.252H34.992C35.676 36.252 36.24 35.688 36.24 35.004V30H45C45.684 30 46.248 29.436 46.248 28.752V22.5H56.244V57.504H56.256Z" fill="#F05A28"/>
</svg>
