<svg width="200" height="208" viewBox="0 0 200 208" fill="none" xmlns="http://www.w3.org/2000/svg">
<path d="M198.76 15.3363C198.605 14.4068 198.295 13.0126 197.054 11.7733C195.814 10.534 194.419 10.0693 193.488 9.91435C192.558 9.75943 191.938 9.91435 191.473 9.91435C190.388 10.0693 189.767 10.2242 189.302 10.534C187.132 11.3086 185.736 12.238 184.186 13.0126L184.031 13.1675L183.876 13.3224C159.69 30.3628 133.953 45.0795 106.822 57.3176C101.55 48.6425 96.7442 39.6576 92.093 30.5177C89.3023 24.9409 86.5116 19.2091 83.7209 13.6322C82.3256 10.8438 80.9302 7.74557 78.7597 4.80223C78.1395 4.02767 77.5194 3.2531 76.7442 2.47854C75.969 1.70398 75.0388 0.7745 73.0233 0.309762C72.093 -6.37426e-05 70.6977 -6.37426e-05 69.6124 0.309762C68.3721 0.619587 67.5969 1.39415 66.9767 2.0138C65.8915 3.2531 65.2713 4.33749 64.9612 5.26697C63.4109 9.13978 63.1008 12.3929 62.7907 15.6461C62.4806 18.8993 62.3256 22.1524 62.1705 25.4056C62.0155 31.9119 62.1705 38.2634 62.3256 44.6148C62.7907 54.5292 63.4109 64.2887 64.3411 74.0482C59.6899 75.5973 22.7907 85.5117 9.14729 89.2296C1.77536e-07 91.7082 -4.8062 96.3556 6.97674 105.031C10.2326 107.354 38.2946 129.197 72.093 136.633C73.1783 143.759 74.4186 150.885 75.814 158.011C77.0543 164.207 78.2946 170.559 79.845 176.755C81.3953 182.952 82.9457 189.303 85.4264 195.655C86.0465 197.204 86.8217 198.908 87.7519 200.612C88.217 201.541 88.8372 202.471 89.7674 203.555C90.2326 204.02 90.8527 204.64 91.7829 205.259C92.7132 205.879 94.2636 206.498 96.124 206.344C97.9845 206.189 99.5349 205.259 100.31 204.485C101.24 203.71 101.705 203.09 102.015 202.471C102.791 201.231 103.256 200.302 103.566 199.373L105.116 194.725C107.132 188.838 109.302 182.952 111.628 177.22C115.969 166.066 120.775 155.067 125.891 144.224C126.046 144.224 126.202 144.224 126.357 144.224C141.705 144.688 157.054 143.759 172.248 141.9C157.054 143.139 142.015 143.139 126.822 142.21C132.403 130.591 138.295 119.283 144.496 108.129C159.69 120.057 176.124 129.817 192.868 139.266C176.744 128.423 160.465 117.734 146.046 105.186C151.318 95.736 156.899 86.2863 162.636 76.8366C169.147 66.1476 175.969 55.6136 182.946 45.0795C186.357 39.8125 189.922 34.5455 193.333 28.9686C194.109 27.5744 195.039 26.1802 195.814 24.631C196.589 23.0819 197.519 21.6877 198.295 19.5189C198.45 18.8993 198.76 18.2796 198.76 17.3502C198.76 17.0403 198.76 16.7305 198.76 16.4207C198.915 16.1109 198.915 15.801 198.76 15.3363ZM20.9302 106.58C10.5426 98.6793 12.7132 97.5949 23.5659 94.3417C33.6434 91.2435 60.9302 84.1175 65.1163 82.8782C66.3566 95.4261 67.907 107.974 69.6124 120.522C70.2326 124.395 70.8527 128.423 71.4729 132.295C47.5969 123.775 26.8217 111.072 20.9302 106.58ZM71.0077 44.15C70.6977 37.9535 70.3876 31.6021 70.3876 25.4056C70.5426 13.6323 73.1783 10.8438 79.6899 22.4623C81.7054 26.1802 83.7209 29.8981 85.7364 33.616C90.5426 42.446 95.6589 51.1211 101.085 59.4864C99.6899 60.106 98.2946 60.7257 96.8992 61.3453C89.1473 64.7534 81.2403 67.8517 73.3333 70.6401C72.4031 61.965 71.6279 53.135 71.0077 44.15ZM101.395 173.347C99.0698 179.234 97.0543 185.121 94.8837 191.162C92.8682 185.895 91.3178 180.163 89.7674 174.432C88.2171 168.39 86.9767 162.348 85.7364 156.152C84.6512 150.575 83.5659 144.843 82.6357 139.111C93.0233 141.28 103.411 142.674 113.953 143.449C109.457 153.363 105.271 163.278 101.395 173.347ZM116.434 138.182C115.969 139.111 115.504 140.196 115.039 141.125C103.876 139.886 92.7132 138.027 81.8605 135.239C80.9302 129.817 80 124.55 79.2248 119.128C77.5194 105.96 75.6589 92.9475 74.2636 79.78C83.1008 76.8366 91.938 73.5834 100.62 70.1754C102.636 69.4008 104.496 68.4713 106.512 67.6968C113.643 77.7661 121.55 87.2158 130.388 95.736C132.093 97.44 133.953 98.9891 135.814 100.693C128.992 112.931 122.481 125.324 116.434 138.182ZM166.046 50.9662C161.705 57.6274 157.364 64.2887 153.178 71.1048C147.752 79.78 142.636 88.4551 137.674 97.44C136.124 96.0458 134.729 94.4967 133.178 92.9475C125.116 84.5822 118.14 75.2875 111.783 65.528C127.287 58.8667 142.326 51.276 156.899 42.9107C168.372 36.2495 179.38 30.3628 166.046 50.9662Z" fill="#E5E5E5"/>
</svg>
